<svg id="wave" style="transform:rotate(180deg); transition: 0.3s" viewBox="0 0 1440 310" version="1.1" xmlns="http://www.w3.org/2000/svg"><defs><linearGradient id="sw-gradient-0" x1="0" x2="0" y1="1" y2="0"><stop stop-color="rgba(95, 147, 212, 1)" offset="0%"></stop><stop stop-color="rgba(163.836, 190.084, 225.722, 1)" offset="100%"></stop></linearGradient></defs><path style="transform:translate(0, 0px); opacity:1" fill="url(#sw-gradient-0)" d="M0,217L48,227.3C96,238,192,258,288,227.3C384,196,480,114,576,87.8C672,62,768,93,864,124C960,155,1056,186,1152,180.8C1248,176,1344,134,1440,108.5C1536,83,1632,72,1728,56.8C1824,41,1920,21,2016,51.7C2112,83,2208,165,2304,170.5C2400,176,2496,103,2592,108.5C2688,114,2784,196,2880,237.7C2976,279,3072,279,3168,273.8C3264,269,3360,258,3456,232.5C3552,207,3648,165,3744,134.3C3840,103,3936,83,4032,82.7C4128,83,4224,103,4320,134.3C4416,165,4512,207,4608,222.2C4704,238,4800,227,4896,227.3C4992,227,5088,238,5184,248C5280,258,5376,269,5472,268.7C5568,269,5664,258,5760,253.2C5856,248,5952,248,6048,222.2C6144,196,6240,145,6336,129.2C6432,114,6528,134,6624,144.7C6720,155,6816,155,6864,155L6912,155L6912,310L6864,310C6816,310,6720,310,6624,310C6528,310,6432,310,6336,310C6240,310,6144,310,6048,310C5952,310,5856,310,5760,310C5664,310,5568,310,5472,310C5376,310,5280,310,5184,310C5088,310,4992,310,4896,310C4800,310,4704,310,4608,310C4512,310,4416,310,4320,310C4224,310,4128,310,4032,310C3936,310,3840,310,3744,310C3648,310,3552,310,3456,310C3360,310,3264,310,3168,310C3072,310,2976,310,2880,310C2784,310,2688,310,2592,310C2496,310,2400,310,2304,310C2208,310,2112,310,2016,310C1920,310,1824,310,1728,310C1632,310,1536,310,1440,310C1344,310,1248,310,1152,310C1056,310,960,310,864,310C768,310,672,310,576,310C480,310,384,310,288,310C192,310,96,310,48,310L0,310Z"></path></svg>